HIERARCHY
ROOT root     
{
	OFFSET 0.0000 0.0000 0.0000
	CHANNELS 6 Xposition Yposition Zposition Zrotation Yrotation Xrotation
	JOINT pelvis   
	{
		OFFSET 0.0000 0.0000 0.0000
		CHANNELS 3 Zrotation Yrotation Xrotation
		JOINT thorax   
		{
			OFFSET 0.0000 23.0750 -5.0000
			CHANNELS 3 Zrotation Yrotation Xrotation
			JOINT rclavicle
			{
				OFFSET 0.0000 28.0009 0.0000
				CHANNELS 3 Zrotation Yrotation Xrotation
				JOINT rhumerus 
				{
					OFFSET -18.5725 5.5939 0.0000
					CHANNELS 3 Zrotation Yrotation Xrotation
					JOINT rradius  
					{
						OFFSET -24.8459 0.0000 0.0000
						CHANNELS 3 Zrotation Yrotation Xrotation
						JOINT rhand    
						{
							OFFSET -24.5477 0.0000 0.0000
							CHANNELS 3 Zrotation Yrotation Xrotation
							End Site
							{
								OFFSET -8.1826 0.0000 0.0000
							}
						}
					}
				}
			}
			JOINT lclavicle
			{
				OFFSET 0.0000 28.0009 0.0000
				CHANNELS 3 Zrotation Yrotation Xrotation
				JOINT lhumerus 
				{
					OFFSET 18.5725 5.5939 0.0000
					CHANNELS 3 Zrotation Yrotation Xrotation
					JOINT lradius  
					{
						OFFSET 24.8459 0.0000 0.0000
						CHANNELS 3 Zrotation Yrotation Xrotation
						JOINT lhand    
						{
							OFFSET 24.5477 0.0000 0.0000
							CHANNELS 3 Zrotation Yrotation Xrotation
							End Site
							{
								OFFSET 8.1826 0.0000 0.0000
							}
						}
					}
				}
			}
			JOINT head     
			{
				OFFSET 0.0000 35.2030 0.0000
				CHANNELS 3 Zrotation Yrotation Xrotation
				End Site
				{
					OFFSET 0.0000 11.7343 0.0000
				}
			}
		}
		JOINT rfemur   
		{
			OFFSET -8.2817 0.0000 0.0000
			CHANNELS 3 Zrotation Yrotation Xrotation
			JOINT rtibia   
			{
				OFFSET 0.0000 -43.3627 0.0000
				CHANNELS 3 Zrotation Yrotation Xrotation
				JOINT rfoot    
				{
					OFFSET 0.0000 -38.2947 0.0000
					CHANNELS 3 Zrotation Yrotation Xrotation
					JOINT rtoes    
					{
						OFFSET 0.0000 0.0000 16.6054
						CHANNELS 3 Zrotation Yrotation Xrotation
						End Site
						{
							OFFSET 0.0000 0.0000 5.5351
						}
					}
				}
			}
		}
		JOINT lfemur   
		{
			OFFSET 8.2817 0.0000 0.0000
			CHANNELS 3 Zrotation Yrotation Xrotation
			JOINT ltibia   
			{
				OFFSET 0.0000 -43.3627 0.0000
				CHANNELS 3 Zrotation Yrotation Xrotation
				JOINT lfoot    
				{
					OFFSET 0.0000 -38.2947 0.0000
					CHANNELS 3 Zrotation Yrotation Xrotation
					JOINT ltoes    
					{
						OFFSET 0.0000 0.0000 16.6054
						CHANNELS 3 Zrotation Yrotation Xrotation
						End Site
						{
							OFFSET 0.0000 0.0000 5.5351
						}
					}
				}
			}
		}
	}
}
MOTION
Frames: 7
Frame Time: .0333333
27.086 76.381 -8.9809 -174.062 41.8035 -157.987 0 -0 0 0.644128 -13.6496 18.2637 18.3574 -12.0106 0.000183817 56.289 -15.7211 4.1341 1.02126e-06 75.2179 1.32565e-06 -3.35889 2.31965 -0.0680007 -17.7636 11.2762 -8.31844e-05 -52.5412 3.99555 10.0918 180 -80.1842 180 -4.72856 7.93752 -0.328196 -12.4771 14.3112 -3.99571 2.48966 -3.04532 -58.1528 -0 -0 45.0112 6.64906e-06 11.2416 10.3017 2.03565 -5.47874e-06 -48.2341 2.69491 -0.989393 -6.24834 -0 -0 41.0005 4.02555e-05 10.5197 -23.7876 -4.28357 2.9214e-05 -38.4955 
27.918 76.262 -9.4089 -174.013 41.1123 -157.961 0 -0 0 1.11676 -13.6612 18.2849 18.5807 -11.8334 -5.83713e-05 56.1709 -15.1563 4.07609 1.44829e-06 75.2548 1.87875e-06 -3.51934 2.31312 -0.0711021 -17.8602 11.1947 5.22751e-05 -52.9751 4.53169 9.87117 -180 -81.2474 180 -4.57537 7.97594 -0.319098 -12.3564 14.065 -4.01769 2.68035 -3.2192 -58.3204 -0 -0 46.6943 1.80061e-06 10.9764 9.23166 1.78218 -2.5509e-05 -45.2641 3.28866 -0.649205 -6.63676 -0 -0 42.7556 7.40566e-05 10.0092 -22.537 -3.87008 -2.16807e-06 -42.8387 
28.73 76.166 -9.8173 -173.943 40.4041 -157.899 0 -0 0 1.60215 -13.6643 18.3298 18.8051 -11.6286 0.000105902 56.0944 -14.5572 3.96864 -1.32773e-06 75.2472 -1.02336e-06 -3.70141 2.29068 -0.0739993 -17.9369 11.0901 -4.29807e-05 -53.4583 5.0164 9.60242 -180 -82.4179 180 -4.36231 8.02943 -0.306293 -12.2031 13.784 -4.06955 2.90429 -3.37811 -58.4394 -0 -0 48.2369 3.1848e-06 10.5126 8.01328 1.48178 -7.37488e-06 -42.7047 3.9051 -0.360205 -7.17458 -0 -0 44.6654 5.01127e-05 9.54696 -21.1352 -3.47023 -1.66926e-05 -46.8651 
29.52 76.093 -10.208 -173.868 39.6794 -157.815 0 -0 0 2.08963 -13.6539 18.3917 19.0288 -11.402 -1.19235e-06 56.0609 -13.9324 3.81573 0 75.1974 0 -3.90105 2.25126 -0.0767006 -17.9851 10.9606 2.98367e-05 -53.9872 5.44639 9.29282 -180 -83.6885 180 -4.08946 8.09552 -0.289507 -12.0034 13.4619 -4.1405 3.14973 -3.52071 -58.504 -0 -0 49.6126 -8.1449e-07 9.89538 6.72047 1.1695 -9.35411e-07 -40.6458 4.52479 -0.136107 -7.84484 -0 -0 46.6863 1.7668e-05 9.15123 -19.605 -3.09393 -4.1748e-05 -50.2949 
30.285 76.041 -10.583 -173.803 38.9437 -157.719 0 -0 0 2.56621 -13.6279 18.4694 19.2445 -11.1594 9.53624e-05 56.0667 -13.2836 3.6288 1.013e-06 75.1154 1.31742e-06 -4.11175 2.1944 -0.0788016 -18.0012 10.8028 4.18341e-05 -54.5569 5.82557 8.94729 180 -85.0574 180 -3.75742 8.17163 -0.268502 -11.7503 13.098 -4.21971 3.40181 -3.64636 -58.5093 -0 -0 50.8095 -3.0073e-06 9.17399 5.42674 0.875001 8.16602e-06 -39.1352 5.12768 0.0167998 -8.62732 -0 -0 48.7791 6.1544e-06 8.83834 -17.9883 -2.74925 -9.24525e-06 -52.8399 
31.025 76.009 -10.943 -173.754 38.1977 -157.614 0 -0 0 3.02796 -13.5761 18.5545 19.4554 -10.9041 1.36819e-05 56.1016 -12.6306 3.41099 -0 75.0165 -0 -4.3319 2.12507 -0.0804014 -17.9811 10.6267 -1.86115e-05 -55.1616 6.13384 8.5887 -180 -86.5197 180 -3.3774 8.25735 -0.243907 -11.4385 12.6846 -4.29204 3.65162 -3.75928 -58.4629 -0 -0 51.8306 -2.03161e-06 8.39754 4.18583 0.617311 -3.4743e-06 -38.0642 5.70187 0.101699 -9.51165 -0 -0 50.9116 -6.30953e-05 8.62028 -16.3202 -2.43929 1.05367e-05 -54.3781 
31.738 75.995 -11.293 -173.736 37.4506 -157.513 0 -0 0 3.45794 -13.5038 18.6481 19.6541 -10.6467 -7.51332e-05 56.162 -11.958 3.18634 9.96494e-07 74.8993 1.301e-06 -4.55029 2.04303 -0.0812016 -17.9271 10.4243 8.38918e-07 -55.7848 6.39662 8.21056 -180 -88.0623 180 -2.94887 8.34886 -0.215296 -11.0651 12.2336 -4.34862 3.88015 -3.85888 -58.3651 -0 -0 52.6843 -5.09126e-06 7.61063 3.05317 0.407798 3.31284e-07 -37.4554 6.22584 0.124497 -10.4713 -0 -0 53.043 -3.85027e-07 8.51089 -14.6817 -2.17196 1.5805e-05 -54.6773 
